<svg xmlns="http://www.w3.org/2000/svg" viewBox="0 0 48 48">
  <path d="M27.5 4 A 1.50015 1.50015 0 1 0 27.5 7C34.973281 7 41 13.026719 41 20.5 A 1.50015 1.50015 0 1 0 44 20.5C44 11.405281 36.594719 4 27.5 4 z M 14.041016 4.0136719C13.382757 3.9657839 12.708271 4.0330649 12.046875 4.2285156L12.044922 4.2285156L9.6796875 4.9296875C7.157236 5.6756944 5.1863379 7.677075 4.5195312 10.203125C3.0389548 15.820868 4.7326768 22.47029 9.140625 29.955078C13.542377 37.429539 18.558019 42.179937 24.222656 43.730469C26.773641 44.428685 29.524755 43.761709 31.457031 41.966797L33.257812 40.296875C35.272819 38.425993 35.573265 35.309882 33.945312 33.095703L31.34375 29.5625C29.949212 27.668344 27.49096 26.861916 25.230469 27.541016L21.160156 28.759766C20.989301 28.809656 20.580424 28.576963 20.224609 28.269531L20.222656 28.267578C19.588917 27.716517 18.710863 26.602712 17.771484 25.009766L17.771484 25.007812C16.764214 23.297093 16.334594 22.17828 16.162109 21.517578C15.989545 20.856572 16.031423 20.776164 16.056641 20.552734C16.069751 20.441248 16.122721 20.337948 16.212891 20.255859L16.214844 20.253906L19.25 17.478516C20.988893 15.888867 21.513843 13.348513 20.533203 11.210938L18.701172 7.21875L18.701172 7.2167969C17.839566 5.3386971 16.015266 4.1572962 14.041016 4.0136719 z M 13.824219 7.0058594C14.742414 7.0744633 15.587933 7.6252174 15.974609 8.46875L17.804688 12.460938C18.248047 13.427361 18.025717 14.533274 17.224609 15.265625L14.191406 18.039062C13.569197 18.606386 13.171295 19.379878 13.076172 20.214844L13.076172 20.216797C13.051392 20.436367 12.992832 21.252897 13.259766 22.275391C13.526701 23.297884 14.077817 24.650307 15.185547 26.53125L15.1875 26.53125C16.221084 28.284258 17.197939 29.616041 18.255859 30.535156L18.257812 30.535156C18.601374 30.832583 20.041282 32.212607 22 31.640625L22.005859 31.638672L26.09375 30.414062C27.155259 30.095163 28.290273 30.475952 28.927734 31.341797L31.529297 34.875C32.266003 35.878668 32.13729 37.243002 31.216797 38.097656L29.416016 39.769531C28.264351 40.839787 26.554167 41.257578 25.013672 40.835938C20.434309 39.582469 15.902811 35.525133 11.726562 28.433594C7.5445112 21.332382 6.2364984 15.459007 7.4199219 10.96875C7.8111153 9.4868 9.0097015 8.2566337 10.53125 7.8066406L12.896484 7.1054688C13.204589 7.0144199 13.518154 6.9829914 13.824219 7.0058594 z M 27.5 10 A 1.50015 1.50015 0 1 0 27.5 13C31.660499 13 35 16.339501 35 20.5 A 1.50015 1.50015 0 1 0 38 20.5C38 14.718499 33.281501 10 27.5 10 z M 27.5 16 A 1.50015 1.50015 0 1 0 27.5 19C28.346499 19 29 19.653501 29 20.5 A 1.50015 1.50015 0 1 0 32 20.5C32 18.032499 29.967501 16 27.5 16 z" fill="#1e1e1e" />
</svg>