<svg xmlns="http://www.w3.org/2000/svg" viewBox="0 0 48 48">
  <path d="M40.988281 5.5 A 1.50015 1.50015 0 0 0 40.330078 5.6582031L4.3300781 23.658203 A 1.50015 1.50015 0 0 0 4.1289062 26.220703L10.730469 30.9375L13.576172 39.474609 A 1.50015 1.50015 0 0 0 16.199219 39.900391L18.3125 37.082031L28.117188 44.212891 A 1.50015 1.50015 0 0 0 30.423828 43.474609L42.423828 7.4746094 A 1.50015 1.50015 0 0 0 40.988281 5.5 z M 36.898438 14.560547L28.224609 40.580078L20.173828 34.726562L36.898438 14.560547 z M 29.207031 14.574219L11.957031 28.126953L7.8984375 25.226562L29.207031 14.574219 z M 30.990234 16.986328L16.857422 34.029297 A 1.50015 1.50015 0 0 0 16.851562 34.035156L16.845703 34.042969 A 1.50015 1.50015 0 0 0 16.800781 34.099609 A 1.50015 1.50015 0 0 0 16.753906 34.162109L15.517578 35.808594L13.757812 30.525391L30.990234 16.986328 z" fill="#FFFFFF" />
</svg>