<svg xmlns="http://www.w3.org/2000/svg" viewBox="0 0 48 48">
  <path d="M14.5 7C12.585045 7 11 8.5850452 11 10.5L11 12.482422L6.2011719 15.337891C4.8383234 16.148112 4 17.620613 4 19.205078L4 19.464844L4 34.5C4 38.071938 6.9280619 41 10.5 41L37.5 41C41.071938 41 44 38.071938 44 34.5L44 19.732422 A 1.50015 1.50015 0 0 0 44 19.242188L44 19.207031C44 17.621621 43.162068 16.150026 41.800781 15.339844 A 1.50015 1.50015 0 0 0 41.798828 15.337891L37 12.484375L37 10.5C37 8.5850452 35.414955 7 33.5 7L14.5 7 z M 14.5 10L33.5 10C33.795045 10 34 10.204955 34 10.5L34 21.966797L24 26.832031L14 21.966797L14 13.568359 A 1.50015 1.50015 0 0 0 14 13.082031L14 10.5C14 10.204955 14.204955 10 14.5 10 z M 18.5 13 A 1.50015 1.50015 0 1 0 18.5 16L29.5 16 A 1.50015 1.50015 0 1 0 29.5 13L18.5 13 z M 11 15.974609L11 20.507812L7.1289062 18.625C7.2513989 18.335647 7.4536236 18.082924 7.734375 17.916016L11 15.974609 z M 37 15.976562L40.265625 17.917969C40.544808 18.08459 40.746215 18.336598 40.869141 18.625L37 20.507812L37 15.976562 z M 18.5 19 A 1.50015 1.50015 0 1 0 18.5 22L25.5 22 A 1.50015 1.50015 0 1 0 25.5 19L18.5 19 z M 7 21.898438L23.34375 29.849609 A 1.50015 1.50015 0 0 0 24.65625 29.849609L41 21.898438L41 34.5C41 36.450062 39.450062 38 37.5 38L10.5 38C8.5499381 38 7 36.450062 7 34.5L7 21.898438 z" fill="#1e1e1e" />
</svg>