<svg xmlns="http://www.w3.org/2000/svg" viewBox="0 0 48 48">
  <path d="M24 4C16.285455 4 10 10.285455 10 18C10 21.46372 11.272608 24.643548 13.359375 27.085938L13.359375 27.087891L13.361328 27.087891C13.361328 27.087891 19.149094 33.866566 21.298828 35.917969C22.798087 37.348278 25.199464 37.347492 26.699219 35.917969C29.129083 33.600994 34.636721 27.090553 34.640625 27.085938L34.642578 27.082031C36.728766 24.639939 38 21.462159 38 18C38 10.285455 31.714545 4 24 4 z M 24 7C30.093455 7 35 11.906545 35 18C35 20.73228 34.005417 23.211194 32.359375 25.136719L32.359375 25.138672L32.357422 25.138672C32.357422 25.138672 26.632181 31.83589 24.628906 33.746094C24.258577 34.099392 23.73947 34.099392 23.369141 33.746094C21.715477 32.16807 15.643092 25.141834 15.638672 25.136719L15.636719 25.132812C13.99327 23.20762 13 20.730712 13 18C13 11.906545 17.906545 7 24 7 z M 24 12C22.125 12 20.528815 12.757133 19.503906 13.910156C18.478997 15.063179 18 16.541667 18 18C18 19.458333 18.478997 20.936821 19.503906 22.089844C20.528815 23.242867 22.125 24 24 24C25.875 24 27.471185 23.242867 28.496094 22.089844C29.521003 20.936821 30 19.458333 30 18C30 16.541667 29.521003 15.063179 28.496094 13.910156C27.471185 12.757133 25.875 12 24 12 z M 24 15C25.124999 15 25.778816 15.367867 26.253906 15.902344C26.728997 16.436821 27 17.208333 27 18C27 18.791667 26.728997 19.563179 26.253906 20.097656C25.778816 20.632133 25.124999 21 24 21C22.875001 21 22.221184 20.632133 21.746094 20.097656C21.271003 19.563179 21 18.791667 21 18C21 17.208333 21.271003 16.436821 21.746094 15.902344C22.221184 15.367867 22.875001 15 24 15 z M 12.771484 29.441406C8.2264844 30.754406 5 32.953 5 36C5 41.252 14.558 44 24 44C33.442 44 43 41.252 43 36C43 32.954 39.775422 30.757359 35.232422 29.443359C34.654422 30.099359 33.863187 30.993844 32.992188 31.964844C37.418188 33.005844 40 34.691 40 36C40 38.039 33.767 41 24 41C14.233 41 8 38.039 8 36C8 34.69 10.586531 33.001938 15.019531 31.960938C14.152531 30.995938 13.355484 30.100406 12.771484 29.441406 z" fill="#BE9F41" />
</svg>